<?xml version="1.0" standalone="no"?>
<!DOCTYPE svg PUBLIC "-//W3C//DTD SVG 20010904//EN"
 "http://www.w3.org/TR/2001/REC-SVG-20010904/DTD/svg10.dtd">
<svg version="1.0" xmlns="http://www.w3.org/2000/svg"
 width="160.000000pt" height="160.000000pt" viewBox="0 0 160.000000 160.000000"
 preserveAspectRatio="xMidYMid meet">
<metadata>
Created by potrace 1.14, written by Peter Selinger 2001-2017
</metadata>
<g transform="translate(0.000000,160.000000) scale(0.100000,-0.100000)"
fill="#000000" stroke="none">
<path d="M663 1515 c-121 -34 -231 -122 -274 -220 -39 -89 -34 -294 13 -443 7
-22 7 -37 0 -44 -11 -11 -41 67 -43 111 -1 18 -3 20 -6 8 -2 -9 0 -41 7 -70
24 -115 29 -126 66 -143 19 -9 37 -14 40 -11 3 3 -2 40 -11 83 -24 107 -17
238 18 315 14 31 31 75 37 98 8 31 14 40 23 33 18 -14 108 -41 137 -41 96 0
281 -16 260 -22 -14 -4 27 -7 90 -6 l115 2 29 -70 c26 -63 28 -81 27 -175 0
-58 -7 -129 -15 -158 -13 -48 -13 -54 2 -59 9 -4 18 -1 20 5 2 7 12 12 22 12
22 0 28 14 50 120 19 89 19 123 0 49 -6 -24 -17 -57 -25 -74 -12 -26 -14 -27
-14 -8 -1 12 3 44 9 70 36 178 43 256 30 332 -36 208 -174 308 -435 317 -86 3
-135 0 -172 -11z"/>
<path d="M591 1076 c-49 -12 -73 -38 -54 -57 9 -9 23 -9 57 0 25 6 58 11 75
11 35 0 49 17 30 35 -22 20 -60 24 -108 11z"/>
<path d="M960 1081 c-15 -4 -26 -15 -28 -29 -3 -19 1 -22 35 -22 21 0 55 -5
76 -11 42 -11 70 1 61 26 -10 26 -100 48 -144 36z"/>
<path d="M588 966 c-45 -34 -38 -99 14 -124 33 -16 71 -1 87 35 16 36 14 51
-14 78 -26 27 -60 32 -87 11z m32 -27 c0 -5 -7 -9 -15 -9 -15 0 -20 12 -9 23
8 8 24 -1 24 -14z"/>
<path d="M966 959 c-51 -40 -22 -122 44 -122 64 0 92 72 45 118 -30 30 -54 31
-89 4z m34 -14 c0 -8 -4 -15 -9 -15 -13 0 -22 16 -14 24 11 11 23 6 23 -9z"/>
<path d="M742 718 c7 -20 148 -24 148 -4 0 11 -8 12 -36 6 -19 -5 -50 -4 -67
1 -42 12 -49 11 -45 -3z"/>
<path d="M244 655 c-3 -14 -1 -97 5 -186 l11 -161 -26 -31 c-37 -44 -71 -115
-94 -198 -11 -41 -20 -75 -20 -76 0 -2 313 -3 696 -3 657 0 695 1 690 18 -3 9
-10 37 -16 61 -17 65 -53 142 -84 178 l-27 32 12 171 c6 94 8 182 5 195 l-6
25 -570 0 -570 0 -6 -25z m606 -265 c-6 -11 -7 -20 -3 -19 27 5 35 -2 29 -27
-4 -14 -2 -32 4 -39 8 -10 8 -19 0 -34 -8 -16 -20 -21 -55 -21 -50 0 -75 24
-75 72 0 29 33 60 55 52 7 -3 15 4 18 15 3 12 12 21 21 21 14 0 15 -4 6 -20z"/>
</g>
</svg>
